<svg width="76" height="43" viewBox="0 0 76 43" fill="none" xmlns="http://www.w3.org/2000/svg">
<rect x="0.5" width="75" height="43" stroke="black"/>
<path d="M43.75 19.6667C43.75 18.1417 43.1442 16.6791 42.0659 15.6008C40.9875 14.5225 39.525 13.9167 38 13.9167C36.475 13.9167 35.0125 14.5225 33.9341 15.6008C32.8558 16.6791 32.25 18.1417 32.25 19.6667C32.25 26.375 29.375 28.2917 29.375 28.2917H46.625C46.625 28.2917 43.75 26.375 43.75 19.6667Z" stroke="black" stroke-width="2" stroke-linecap="round" stroke-linejoin="round"/>
<path d="M39.6579 32.125C39.4894 32.4154 39.2476 32.6565 38.9566 32.8241C38.6656 32.9917 38.3357 33.0799 38 33.0799C37.6642 33.0799 37.3343 32.9917 37.0433 32.8241C36.7524 32.6565 36.5105 32.4154 36.342 32.125" stroke="black" stroke-width="2" stroke-linecap="round" stroke-linejoin="round"/>
</svg>
