<svg width="20" height="20" viewBox="0 0 20 20" fill="none" xmlns="http://www.w3.org/2000/svg">
<path d="M9.5 4C9.5 3.75454 9.67688 3.55039 9.91013 3.50806L10 3.5L16 3.5C17.3255 3.5 18.41 4.53154 18.4947 5.83562L18.5 6L18.5 14C18.5 15.3255 17.4685 16.41 16.1644 16.4947L16 16.5H10C9.72386 16.5 9.5 16.2761 9.5 16C9.5 15.7545 9.67688 15.5504 9.91013 15.5081L10 15.5L16 15.5C16.7797 15.5 17.4205 14.9051 17.4931 14.1445L17.5 14L17.5 6C17.5 5.2203 16.9051 4.57955 16.1445 4.50687L16 4.5L10 4.5C9.72386 4.5 9.5 4.27614 9.5 4ZM6.38909 14.5962L2.14645 10.3536C1.97288 10.18 1.9536 9.91056 2.08859 9.71569L2.14645 9.64645L6.38909 5.40381C6.58435 5.20854 6.90094 5.20854 7.0962 5.40381C7.26976 5.57737 7.28905 5.8468 7.15405 6.04167L7.0962 6.11091L3.707 9.5L13 9.5C13.2455 9.5 13.4496 9.67688 13.4919 9.91012L13.5 10C13.5 10.2455 13.3231 10.4496 13.0899 10.4919L13 10.5L3.707 10.5L7.0962 13.8891C7.26976 14.0627 7.28905 14.3321 7.15405 14.5269L7.0962 14.5962C6.92263 14.7698 6.65321 14.789 6.45834 14.654L6.38909 14.5962L2.14645 10.3536L6.38909 14.5962Z" fill="#212121"/>
</svg>
