<svg width="24" height="21" viewBox="0 0 24 21" fill="none" xmlns="http://www.w3.org/2000/svg">
<path fill-rule="evenodd" clip-rule="evenodd" d="M3.1001 6.42857C3.1001 5.93152 3.50304 5.52857 4.0001 5.52857H20.0001C20.4972 5.52857 20.9001 5.93152 20.9001 6.42857C20.9001 6.92563 20.4972 7.32857 20.0001 7.32857H4.0001C3.50304 7.32857 3.1001 6.92563 3.1001 6.42857Z" fill="black"/>
<path fill-rule="evenodd" clip-rule="evenodd" d="M3.09961 12.4286C3.09961 11.9315 3.41653 11.5286 3.80747 11.5286H16.3917C16.7827 11.5286 17.0996 11.9315 17.0996 12.4286C17.0996 12.9256 16.7827 13.3286 16.3917 13.3286H3.80747C3.41653 13.3286 3.09961 12.9256 3.09961 12.4286Z" fill="black"/>
<path fill-rule="evenodd" clip-rule="evenodd" d="M3.1001 18.4286C3.1001 17.9315 3.50304 17.5286 4.0001 17.5286H20.0001C20.4972 17.5286 20.9001 17.9315 20.9001 18.4286C20.9001 18.9256 20.4972 19.3286 20.0001 19.3286H4.0001C3.50304 19.3286 3.1001 18.9256 3.1001 18.4286Z" fill="black"/>
</svg>
