<svg width="24" height="23" viewBox="0 0 24 23" fill="none" xmlns="http://www.w3.org/2000/svg">
<path d="M17.75 7.66666C17.75 6.14167 17.1442 4.67913 16.0659 3.6008C14.9875 2.52247 13.525 1.91666 12 1.91666C10.475 1.91666 9.01247 2.52247 7.93414 3.6008C6.8558 4.67913 6.25 6.14167 6.25 7.66666C6.25 14.375 3.375 16.2917 3.375 16.2917H20.625C20.625 16.2917 17.75 14.375 17.75 7.66666Z" stroke="black" stroke-width="2" stroke-linecap="round" stroke-linejoin="round"/>
<path d="M13.6579 20.125C13.4894 20.4154 13.2476 20.6565 12.9566 20.8241C12.6656 20.9917 12.3357 21.0799 12 21.0799C11.6642 21.0799 11.3343 20.9917 11.0433 20.8241C10.7524 20.6565 10.5105 20.4154 10.342 20.125" stroke="black" stroke-width="2" stroke-linecap="round" stroke-linejoin="round"/>
</svg>
