<svg width="16" height="16" viewBox="0 0 16 16" fill="none" xmlns="http://www.w3.org/2000/svg">
<g clip-path="url(#clip0_372_6804)">
<path d="M8.00013 1.33333C3.2308 1.33333 0.2668 7.15599 0.140133 7.40399C0.0476551 7.58906 -0.000488281 7.79311 -0.000488281 7.99999C-0.000488281 8.20688 0.0476551 8.41093 0.140133 8.59599C0.2668 8.84399 3.2308 14.6667 8.00013 14.6667C12.7695 14.6667 15.7335 8.84399 15.8668 8.59599C15.9593 8.41093 16.0074 8.20688 16.0074 7.99999C16.0074 7.79311 15.9593 7.58906 15.8668 7.40399C15.7335 7.15599 12.7695 1.33333 8.00013 1.33333ZM8.00013 12C5.7548 12 3.77213 9.50533 2.86413 8.00799C3.62413 6.76799 5.5908 3.99999 8.00013 3.99999C10.2455 3.99999 12.2281 6.49599 13.1361 7.99199C12.3761 9.23199 10.4095 12 8.00013 12Z" fill="white"/>
<path d="M8.00024 10C9.10481 10 10.0002 9.10457 10.0002 8C10.0002 6.89543 9.10481 6 8.00024 6C6.89567 6 6.00024 6.89543 6.00024 8C6.00024 9.10457 6.89567 10 8.00024 10Z" fill="white"/>
</g>
<defs>
<clipPath id="clip0_372_6804">
<rect width="16" height="16" rx="8" fill="white"/>
</clipPath>
</defs>
</svg>
